<svg xmlns="http://www.w3.org/2000/svg" width="300" height="200">
    <path
        d="M200.6 106.3c-1.2 0-3.2.3-6 .7-2.7.5-5 1-6.6 1.5-2.6.8-4.5 1.7-5.6 2.6-1.2 1-1.8 2-1.8 3.1 0 .8.2 1.5.6 2a8 8 0 002.1 1.7c1.4 1 2.3 2.1 2.7 4 .3 1.6.5 5.5.5 11.6 0 6-.2 10.6-.6 13.8-.2 2-.8 3-1.8 3.5-1 .4-1.7.8-2 1.1-.4.4-.5.8-.5 1.4 0 .8.3 1.5.8 2.2.6.7 1.4 1.2 2.3 1.5 1.9.7 5.3 1 10 1 4.3 0 7.3-.2 9.1-.8 1-.2 1.8-.7 2.3-1.4.6-.7 1-1.4 1-2.2 0-.7-.2-1.2-.5-1.5-.3-.4-1-.7-1.9-1-1-.6-1.7-1.3-1.8-2-.2-1-.3-4-.3-9.4v-12a208.8 208.8 0 011-17.7c0-2.4-1-3.7-3-3.7zm49 0c-2.2 0-6.4 1-12.8 2.6-3.6 1-5.4 2.5-5.4 4.3 0 1.2.8 2.1 2.3 2.6a5 5 0 012.4 1.3c.4.5.6 1.2.6 2 0 2.2-.4 3.3-1.2 3.3a2 2 0 01-.9-.3c-2.3-1.3-4.8-2-7.7-2a18.2 18.2 0 00-15 9 19.2 19.2 0 00-.7 19 21 21 0 004.4 6 15 15 0 0010.5 4.2c3 0 5.9-1 8.4-3 1-.8 1.6-1.2 2-1.2.8 0 1.2.6 1.3 2 .1.8.3 1.4.5 1.6.2.2.8.4 1.6.4 3.6 0 7.2-.5 10.8-1.4 4-1 6-2.6 6-4.6a3 3 0 00-.5-1.7c-.3-.5-.9-1-1.8-1.6-.7-.6-1.2-1-1.4-1.6-.1-.6-.2-1.8-.2-3.8v-34c0-2-1-3-3.2-3zm19.7.6c-3 0-5.3 1.2-6.9 3.6a13.2 13.2 0 00-1.9 7.1 37.6 37.6 0 004.4 15.5c1.8 3.3 3.2 5 4.2 5s2.4-1.3 4-4a30.6 30.6 0 004.9-16c0-3.8-1-6.7-3.1-8.8a7.5 7.5 0 00-5.6-2.4zm-149 13.2a20.6 20.6 0 00-.3 0h-.1c-6.5 0-12 2-16.6 6a18 18 0 00-6.6 14.3c0 5.3 1.8 9.6 5.4 12.8 3.6 3.4 8.5 5.1 14.4 5.1a26 26 0 0016.2-5.4 16.9 16.9 0 005.3-22.6 19 19 0 00-6-6.6 20.6 20.6 0 00-11.6-3.6zm53.6.3a7.5 7.5 0 00-.2 0c-3.2 0-5.8 1.6-7.8 4.7-.4.7-.9 1-1.4 1-.6 0-1-.5-1.1-1.6-.3-2-.5-3.2-.8-3.6-.3-.3-1-.5-2.4-.5a36.4 36.4 0 00-16 4.3 3.8 3.8 0 00-1.7 3c0 1.4.8 2.4 2.6 3 .8.4 1.3.8 1.5 1.3.3.4.4 1.2.4 2.4 0 6-.2 10.3-.6 12.5-.1.7-.3 1.2-.6 1.6a7 7 0 01-1.5 1.3c-1.5 1-2.2 2.2-2.2 3.5 0 1.7 1 3 3 3.6a55.4 55.4 0 0020.6.4c1.2-.2 2.2-.7 2.9-1.5.7-.8 1-1.6 1-2.7 0-1.6-1-2.8-3.3-3.5l-2-.8a4 4 0 01-.7-1.6 46.8 46.8 0 01-.1-12.6c.2-.8.7-1.2 1.4-1.2.4 0 .9.3 1.4.8 1.4 1.3 2.5 2.3 3.4 2.7a8.2 8.2 0 009-1.6 9 9 0 002.2-3 9 9 0 00.8-3.6c0-1-.2-2.2-.7-3.3-.4-1-1-2-1.7-2.8a7.5 7.5 0 00-5.4-2.2zm-137.7 0c-3.5 0-6.8.3-9.8 1-3 1-4.4 2.2-4.4 4.1 0 .6.2 1.2.5 1.7.4.5.9 1 1.4 1 1.3.4 2.2.8 2.7 1.2 1 1 2.5 3 4.4 6l11.2 18.5a14 14 0 002.5 3.3 4 4 0 002.5 1c1.5 0 2.9-1 4-3.2l6.3-10.7c1-1.7 1.9-2.5 2.8-2.5.4 0 .7.1 1 .4l1.7 2.5 3.9 6.2a39 39 0 004 5.6c1.1 1.1 2.1 1.7 3 1.7 2.1 0 4.5-2.6 7.2-7.9l9.4-18c.8-1.7 1.5-2.9 2.1-3.5.6-.7 1.4-1.2 2.3-1.5l2.6-1c.7-.6 1-1.3 1-2 0-.9-.2-1.6-.8-2.2-.6-.6-1.4-1-2.3-1.2a29.4 29.4 0 00-12.8.6 2.7 2.7 0 00-1.8 2.7c0 .8.3 1.6.9 2.3.8 1 1.2 1.7 1.2 2.2 0 .6-.5 1.8-1.5 3.6-1.4 2.4-2.5 3.6-3.4 3.6-.8 0-1.8-1-2.7-2.8a12.8 12.8 0 01-1.8-4.3c0-.5.2-.9.4-1.2a8 8 0 001.7-1.8l.2-1.4c0-1.4-.8-2.4-2.5-3a22 22 0 00-8-1 70 70 0 00-8.6.5c-4 .6-6 2-6 3.8 0 1 .5 1.6 1.3 2.2 1.4 1 2.3 1.7 2.7 2.2.3.4.5 1 .5 1.8s-.4 1.8-1.3 3c-.8 1.3-1.5 2-2 2-1 0-2.1-1.4-3.4-3.8a13.5 13.5 0 01-1.8-4c0-.3.1-.6.3-.8a6 6 0 001.1-2.5c0-3-4-4.4-11.9-4.4zm196.3 7.7c1.3 0 2.3.6 3 1.6.9 1.3 1.3 3.8 1.3 7.6 0 4.2-.4 7.3-1.1 9.2-.7 1.8-2 2.8-3.5 2.8s-2.7-.7-3.6-2a13.2 13.2 0 01-1.8-7.6c0-3.7.6-6.7 1.9-9 1-1.7 2.2-2.6 3.8-2.6zm-115.5.6c1.4 0 2.6 1 3.4 2.6a34.3 34.3 0 012.9 13.6c0 3-1.1 4.3-3.4 4.3-1.7 0-3-1-3.7-3a47.8 47.8 0 01-2.9-13 5 5 0 011-3.2c.7-.9 1.6-1.3 2.7-1.3zm152.5 13.6a8 8 0 00-6.1 2.5 7.5 7.5 0 00-2.2 5.5 8 8 0 002.5 6 7.8 7.8 0 005.5 2.1c2.2 0 4.1-.8 5.7-2.4a8 8 0 002.4-5.7c0-2.2-.7-4-2.3-5.6a7.4 7.4 0 00-5.5-2.4z"
        stroke="#f08046" fill="none" stroke-width="3"/>
    <path
        d="M65.8 41.6c-3 0-6 .3-8.8.8-4.9 1-7.3 2.7-7.3 5.3 0 1 .6 1.8 1.6 2.3 1.7.8 2.7 1.6 3 2.3.5.7.7 2 .6 4.2a1192 1192 0 00.2 13.3c0 4.7-.2 8.5-.5 11.4A8.2 8.2 0 0154 84a3 3 0 01-1.5 1.4 10 10 0 00-2.6 1.7c-.4.4-.6 1-.6 1.9 0 .8.3 1.6 1 2.2a6 6 0 002.6 1.6c2.6.9 6 1.3 10 1.3 4.5 0 8-.5 10.3-1.4 2.5-1 3.7-2.2 3.7-4 0-1.4-.6-2.3-1.6-3-1-.6-1.7-1-2-1.5-.7-1.2-1-3.3-1-6l.1-4.5c.1-1 .4-1.5 1-1.7a29 29 0 0112-.2c.5.3.7 1.3.7 2.9 0 3-.2 5.6-.7 7.7a7 7 0 01-.7 2.2 4 4 0 01-1.5 1.2c-1.5.8-2.2 1.9-2.2 3.3 0 1.7 1 2.9 3 3.7 2 .9 5.3 1.3 9.7 1.3 5 0 8.7-.4 11-1.3 2.2-1 3.3-2.2 3.3-4.1 0-1.1-.5-2-1.4-2.4l-2.3-1.5c-.3-.3-.5-.8-.7-1.5-.4-1.4-.6-4.6-.6-9.6a404.8 404.8 0 01.6-20c.2-1.1.4-2 .7-2.3.3-.4 1-.8 2-1.3 1.5-.7 2.2-1.8 2.2-3.3 0-1.8-1-3-3.2-4-2.2-.7-5.6-1.2-10.2-1.2a38 38 0 00-9.7 1 5 5 0 00-3 1.7 4 4 0 00-1.2 2.7c0 .7.2 1.3.5 1.8.4.4 1.1 1 2.2 1.6 1 .4 1.5 1.3 1.8 2.6.3 1.3.4 3.6.4 6.9 0 1-.3 1.7-1 2-.5.3-2 .4-4.7.4H75c-.7-.1-1.3-.2-1.6-.5-.7-.4-1-1.5-1-3.2 0-3 .1-5 .4-6a4 4 0 011.8-2.2 7.9 7.9 0 002.3-2c.4-.4.6-1.1.6-2 0-3.2-3.9-4.8-11.6-4.8zm105 .8a57 57 0 00-12.6 2.2c-2.4.7-4.3 1.6-5.5 2.5-1 .9-1.7 2-1.7 3.2 0 .7.2 1.4.5 2a9 9 0 002.2 1.6c1.4.9 2.3 2.2 2.6 4 .4 1.7.5 5.6.5 11.6s-.2 10.6-.6 13.8c-.2 2-.8 3-1.8 3.5s-1.7.8-2 1.2c-.3.3-.5.7-.5 1.3 0 .8.3 1.5 1 2.2.5.7 1.2 1.2 2.1 1.5 2 .7 5.3 1 10.1 1 4.3 0 7.3-.2 9-.7a5 5 0 002.4-1.5c.6-.6 1-1.4 1-2.2 0-.6-.3-1.1-.6-1.5-.3-.3-.9-.7-1.8-1.1-1-.5-1.7-1.1-1.9-2 0-1-.2-4-.2-9.3v-12a208.8 208.8 0 011-17.7c0-2.4-1-3.6-3-3.6zm28 0a57 57 0 00-12.7 2.2c-2.5.7-4.4 1.6-5.6 2.5-1 .9-1.7 2-1.7 3.2 0 .7.2 1.4.5 2a9 9 0 002.2 1.6c1.4.9 2.3 2.2 2.6 4 .4 1.7.5 5.6.5 11.6s-.2 10.6-.6 13.8c-.2 2-.8 3-1.7 3.5-1 .5-1.8.8-2 1.2-.4.3-.5.7-.5 1.3 0 .8.2 1.5.8 2.2.6.7 1.3 1.2 2.2 1.5 2 .7 5.3 1 10.1 1 4.3 0 7.3-.2 9.1-.7 1-.3 1.7-.8 2.3-1.5.6-.6 1-1.4 1-2.2 0-.6-.3-1.1-.6-1.5-.3-.3-.9-.7-1.8-1.1-1-.5-1.7-1.1-1.9-2 0-1-.2-4-.2-9.3v-12a208.8 208.8 0 011-17.7c0-2.4-1-3.6-3-3.6zm32 13.7a20.6 20.6 0 00-.3 0c-6.5 0-12 2-16.7 6a18 18 0 00-6.5 14.3 17 17 0 005.3 12.9c3.7 3.4 8.5 5 14.5 5a26 26 0 0016.2-5.4 16.9 16.9 0 005.1-22.6 19 19 0 00-6-6.6 20.6 20.6 0 00-11.6-3.6zm-99.6 0a21 21 0 00-16.6 8 19 19 0 002.7 25.7c3.6 3 8 4.5 13.2 4.5 5.2 0 9.8-1.4 13.7-4.4 2.3-1.7 3.4-3.4 3.4-5.2a4 4 0 00-1-2.4c-.6-.8-1.2-1.2-1.9-1.2-.5 0-1 .3-2 .9-1 .6-2 1.2-3.6 1.7a15 15 0 01-4 .6c-2 0-3.9-.7-5.6-2-1.8-1.5-2.6-3-2.6-4.7 0-.6.4-1 1.1-1h17.6c1 0 2-.5 2.6-1.5.6-1 1-2.4 1-4 0-2-.6-4-1.8-6.1-1-2-2.3-3.5-4-4.8-3.3-2.7-7.3-4-12-4zm-.3 6.8c1.2 0 2.2.4 3 1.3.8.8 1.2 1.9 1.2 3.2 0 1.5-.8 2.2-2.4 2.2H129c-.9 0-1.5-.1-2-.4-.3-.3-.4-.8-.4-1.6 0-1 .3-2 1-3a4 4 0 013.4-1.7zm96.6 1.9c1.5 0 2.6.9 3.5 2.6a38.5 38.5 0 012.8 13.5c0 2.9-1 4.3-3.3 4.3-1.7 0-3-1-3.8-3a47.9 47.9 0 01-2.8-13 5 5 0 011-3.2 3 3 0 012.6-1.2z"
        fill="none" stroke="#ff3232" stroke-width="3"/>
</svg>
