<svg xmlns="http://www.w3.org/2000/svg">
    <path
        d="M45.5 4c-3 0-6 .3-8.8.8-4.9 1-7.3 2.7-7.3 5.3 0 1 .6 1.8 1.6 2.3 1.7.8 2.7 1.6 3 2.3.5.7.7 2 .6 4.2a1192 1192 0 00.2 13.3c0 4.7-.2 8.5-.5 11.4a8.2 8.2 0 01-.7 2.8 3 3 0 01-1.5 1.4 10 10 0 00-2.6 1.7c-.4.4-.6 1-.6 1.9 0 .8.3 1.6 1 2.2.6.7 1.5 1.2 2.6 1.6 2.6.9 6 1.3 10 1.3 4.5 0 8-.5 10.3-1.4 2.5-1 3.7-2.2 3.7-4 0-1.4-.6-2.3-1.6-3-1-.6-1.7-1-2-1.5-.7-1.2-1.1-3.3-1.1-6 0-1.8 0-3.3.2-4.5.1-1 .4-1.5 1-1.7a29 29 0 0112-.2c.5.3.7 1.3.7 2.9 0 3-.2 5.6-.7 7.7a7 7 0 01-.7 2.2 4 4 0 01-1.5 1.2c-1.5.8-2.2 1.9-2.2 3.3 0 1.7 1 2.9 2.9 3.7 2 .9 5.4 1.3 9.8 1.3 5 0 8.7-.4 11-1.3 2.2-.9 3.3-2.2 3.3-4.1 0-1.1-.5-1.9-1.4-2.4l-2.3-1.5c-.3-.3-.5-.8-.7-1.5-.4-1.4-.6-4.6-.6-9.6a404.8 404.8 0 01.6-20c.2-1.1.4-1.9.7-2.3.3-.4 1-.8 2-1.3 1.5-.7 2.2-1.8 2.2-3.3 0-1.8-1-3-3.2-4C82.7 4.5 79.3 4 74.7 4c-3.9 0-7.1.3-9.7 1-1.2.2-2.2.8-3 1.7a4 4 0 00-1.2 2.7c0 .7.2 1.3.5 1.8.4.4 1.1 1 2.2 1.6.9.4 1.5 1.3 1.8 2.6.3 1.3.4 3.6.4 6.9 0 1-.3 1.7-1 2-.5.3-2.1.4-4.7.4h-5.4c-.7-.1-1.3-.2-1.6-.5-.7-.4-1-1.5-1-3.2 0-3 .1-5 .4-5.9a4 4 0 011.8-2.3 7.9 7.9 0 002.3-1.9c.4-.5.6-1.2.6-2.1 0-3.2-3.9-4.8-11.6-4.8zm105 .8A57 57 0 00137.9 7c-2.4.7-4.3 1.6-5.5 2.5-1.1.9-1.7 2-1.7 3.2 0 .7.2 1.4.5 2 .4.5 1.2 1 2.2 1.6 1.4.9 2.3 2.2 2.6 4 .4 1.7.5 5.6.5 11.6s-.2 10.6-.6 13.8c-.2 2-.8 3-1.8 3.5s-1.7.8-2 1.2c-.3.3-.5.7-.5 1.3 0 .8.3 1.5.9 2.2.6.7 1.3 1.2 2.2 1.5 2 .7 5.3 1 10.1 1 4.3 0 7.3-.2 9-.7 1-.3 1.8-.8 2.4-1.5.6-.6.9-1.4.9-2.2 0-.6-.2-1.1-.5-1.5-.3-.3-.9-.7-1.8-1.1-1-.5-1.7-1.1-1.9-2-.1-.9-.2-4-.2-9.3v-12a208.8 208.8 0 011-17.7c0-2.4-1-3.6-3-3.6zm28 0A57 57 0 00165.8 7c-2.5.7-4.4 1.6-5.6 2.5-1.1.9-1.7 2-1.7 3.2 0 .7.2 1.4.5 2 .4.5 1.2 1 2.2 1.6 1.4.9 2.3 2.2 2.6 4 .4 1.7.5 5.6.5 11.6s-.2 10.6-.6 13.8c-.2 2-.8 3-1.7 3.5-1 .5-1.8.8-2 1.2-.4.3-.5.7-.5 1.3 0 .8.2 1.5.8 2.2.6.7 1.3 1.2 2.2 1.5 2 .7 5.3 1 10.1 1 4.3 0 7.3-.2 9.1-.7 1-.3 1.7-.8 2.3-1.5.6-.6 1-1.4 1-2.2 0-.6-.3-1.1-.6-1.5-.3-.3-.9-.7-1.8-1.1-1-.5-1.7-1.1-1.9-2-.1-.9-.2-4-.2-9.3v-12a208.8 208.8 0 011-17.7c0-2.4-1-3.6-3-3.6zm31.7 13.7c-6.5 0-12 2-16.7 6a18 18 0 00-6.5 14.3c0 5.3 1.8 9.6 5.3 12.9 3.7 3.4 8.5 5 14.5 5a26 26 0 0016.2-5.4 16.9 16.9 0 005.1-22.6 19 19 0 00-6-6.6 20.6 20.6 0 00-11.9-3.6zm-99.3 0a21 21 0 00-16.6 8.1A19 19 0 0097 52.2c3.6 3 8 4.5 13.2 4.5 5.2 0 9.8-1.4 13.7-4.4 2.3-1.7 3.4-3.4 3.4-5.2a4 4 0 00-1-2.4c-.6-.8-1.2-1.2-1.9-1.2-.5 0-1.1.3-2 .9-1 .6-2.1 1.2-3.6 1.7-1.4.4-2.8.6-4 .6-2 0-3.9-.7-5.6-2-1.8-1.5-2.6-3-2.6-4.7 0-.6.4-1 1.1-1h17.6c1 0 1.9-.5 2.6-1.5.6-1 1-2.4 1-4 0-2-.6-4-1.8-6.1-1-1.9-2.3-3.5-4-4.8-3.3-2.7-7.3-4-12-4zm-.3 6.8c1.2 0 2.2.4 3 1.3.8.8 1.2 1.9 1.2 3.2 0 1.5-.8 2.2-2.4 2.2h-3.8c-.9 0-1.5-.1-2-.4-.3-.3-.4-.8-.4-1.6 0-1 .3-2 1-3 .9-1.2 2-1.7 3.4-1.7zm96.6 1.9c1.5 0 2.6.9 3.5 2.6.8 1.6 1.4 3.8 2 6.5.5 2.6.8 5 .8 7 0 2.9-1 4.3-3.3 4.3-1.7 0-3-1-3.8-3a47.9 47.9 0 01-2.8-13 5 5 0 011-3.2c.6-.8 1.5-1.2 2.6-1.2zM227.6 72c-2.2 0-6.4.9-12.8 2.6-3.6 1-5.4 2.5-5.4 4.3 0 1.2.8 2.1 2.3 2.6a5 5 0 012.4 1.3c.4.5.6 1.2.6 2 0 2.2-.4 3.3-1.2 3.3a2 2 0 01-.9-.3c-2.3-1.3-4.8-2-7.7-2a18.2 18.2 0 00-15 9 19.2 19.2 0 00-.7 19 21 21 0 004.4 6 15 15 0 0010.5 4.2c3 0 5.9-1 8.4-3 1-.8 1.6-1.2 2-1.2.8 0 1.2.6 1.3 2 .1.8.3 1.4.5 1.6.2.2.8.4 1.6.4 3.6 0 7.2-.5 10.8-1.4 4-1 6-2.6 6-4.6a3 3 0 00-.5-1.7c-.3-.5-.9-1-1.8-1.6-.7-.6-1.2-1-1.4-1.6-.1-.6-.2-1.8-.2-3.8v-34c0-2-1-3.1-3.2-3.1zm-49 0c-1.2 0-3.2.3-6 .7-2.7.5-5 1-6.6 1.5-2.6.8-4.5 1.7-5.6 2.6-1.2.9-1.8 2-1.8 3.1 0 .8.2 1.5.6 2 .4.5 1.1 1.1 2.1 1.7 1.4.9 2.3 2.1 2.7 3.9.3 1.7.5 5.6.5 11.7 0 6-.2 10.6-.6 13.8-.2 1.9-.8 3-1.8 3.5-1 .4-1.7.8-2 1.1-.4.4-.5.8-.5 1.4 0 .8.3 1.5.8 2.2.6.7 1.4 1.2 2.3 1.5 1.9.7 5.3 1 10 1 4.3 0 7.3-.2 9.1-.8 1-.2 1.8-.7 2.3-1.4.6-.7 1-1.4 1-2.2 0-.7-.2-1.2-.5-1.5-.3-.4-1-.7-1.9-1.1-1-.5-1.7-1.2-1.8-2-.2-1-.3-4-.3-9.3v-12a208.8 208.8 0 011-17.7c0-2.4-1-3.7-3-3.7zm68.7.6c-3 0-5.3 1.2-6.9 3.6-1.2 1.9-1.9 4.3-1.9 7.1a37.6 37.6 0 004.4 15.5c1.8 3.3 3.2 5 4.2 5s2.4-1.3 4-4a30.6 30.6 0 004.9-16c0-3.8-1-6.7-3.1-8.8a7.5 7.5 0 00-5.6-2.4zM97.9 85.8c-6.5 0-12 2-16.6 5.9a18 18 0 00-6.6 14.4c0 5.3 1.8 9.6 5.4 12.8 3.6 3.4 8.5 5.1 14.4 5.1a26 26 0 0016.2-5.4A16.9 16.9 0 00116 96a19 19 0 00-6-6.6 20.6 20.6 0 00-12-3.6zm-83.7.3c-3.5 0-6.8.3-9.8 1-3 .9-4.4 2.2-4.4 4.1 0 .6.2 1.2.5 1.7.4.5.9.9 1.4 1 1.3.4 2.2.8 2.7 1.2 1 1 2.5 2.9 4.4 5.9l11.2 18.6c.9 1.5 1.7 2.6 2.5 3.3a4 4 0 002.5.9c1.5 0 2.9-1 4-3.1l6.3-10.7c1-1.7 1.9-2.5 2.8-2.5.4 0 .7.1 1 .4l1.7 2.5 3.9 6.2a39 39 0 004 5.6c1.1 1.1 2.1 1.7 3 1.7 2.1 0 4.5-2.6 7.2-7.9l9.4-18c.8-1.7 1.5-2.9 2.1-3.5.6-.7 1.4-1.2 2.3-1.5l2.6-1c.7-.6 1-1.3 1-2 0-.9-.2-1.6-.8-2.2-.6-.6-1.4-1-2.3-1.2a29.4 29.4 0 00-12.8.6 2.7 2.7 0 00-1.8 2.7c0 .8.3 1.6.9 2.3.8 1 1.2 1.7 1.2 2.2 0 .6-.5 1.8-1.5 3.6-1.4 2.4-2.5 3.6-3.4 3.6-.8 0-1.8-1-2.7-2.8a12.8 12.8 0 01-1.8-4.3c0-.5.2-.9.4-1.2 1-.8 1.5-1.5 1.7-1.8l.2-1.4c0-1.4-.8-2.4-2.5-3-1.6-.7-4.3-1-8-1-3.3 0-6.2.2-8.6.5-4 .6-6 1.9-6 3.8 0 .9.5 1.6 1.3 2.2 1.4 1 2.3 1.7 2.7 2.2.3.4.5 1 .5 1.8s-.4 1.8-1.3 3c-.8 1.3-1.5 1.9-2 1.9-1 0-2.1-1.3-3.4-3.7a13.5 13.5 0 01-1.8-4c0-.3.1-.6.3-.8.7-1.1 1.1-2 1.1-2.5 0-3-4-4.4-11.9-4.4zm124 0a36.4 36.4 0 00-16 4.3c-1.1.8-1.7 1.9-1.7 3 0 1.4.8 2.4 2.6 3 .8.4 1.3.8 1.5 1.3.3.4.4 1.2.4 2.4 0 6-.2 10.3-.6 12.5-.1.7-.3 1.2-.6 1.6-.3.4-.8.8-1.5 1.3-1.5 1-2.2 2.2-2.2 3.5 0 1.7 1 2.9 3 3.6a55.4 55.4 0 0020.6.4c1.2-.2 2.2-.7 2.9-1.5.7-.8 1-1.6 1-2.7 0-1.6-1-2.8-3.3-3.5l-2-.8c-.3-.3-.5-.9-.7-1.6a46.8 46.8 0 01-.1-12.6c.2-.8.7-1.2 1.4-1.2.4 0 .9.3 1.4.8 1.4 1.3 2.5 2.3 3.4 2.7.8.4 2 .7 3.2.7 2.3 0 4.2-.8 5.8-2.3a9 9 0 002.2-3 9 9 0 00.8-3.6c0-1-.2-2.2-.7-3.3-.4-1.1-1-2-1.7-2.8a7.5 7.5 0 00-5.6-2.2c-3.2 0-5.8 1.6-7.8 4.7-.4.7-.9 1-1.4 1-.6 0-1-.5-1.1-1.6-.3-2-.5-3.2-.8-3.6-.3-.3-1-.5-2.4-.5zm72.3 7.7c1.3 0 2.3.6 3 1.6.9 1.3 1.3 3.8 1.3 7.6 0 4.2-.4 7.3-1.1 9.2-.7 1.8-2 2.8-3.5 2.8s-2.7-.7-3.6-2a13.2 13.2 0 01-1.8-7.6c0-3.7.6-6.7 1.9-9 1-1.7 2.2-2.6 3.8-2.6zM95 94.4c1.4 0 2.6 1 3.4 2.6a34.3 34.3 0 012.9 13.6c0 2.9-1.1 4.3-3.4 4.3-1.7 0-3-1-3.7-3a47.8 47.8 0 01-2.9-13 5 5 0 011-3.2c.7-.9 1.6-1.3 2.7-1.3zM247.5 108a8 8 0 00-6.1 2.5 7.5 7.5 0 00-2.2 5.5c0 2.4.8 4.3 2.5 6a7.8 7.8 0 005.5 2.1c2.2 0 4.1-.8 5.7-2.4a8 8 0 002.4-5.7c0-2.2-.7-4-2.3-5.6a7.4 7.4 0 00-5.5-2.4z"/>
</svg>
